<svg width="175" height="36" viewBox="0 0 175 36" fill="none" xmlns="http://www.w3.org/2000/svg">
<path d="M150.08 35.9998C143.953 35.9998 140.161 30.0341 139.108 24.1125C139.007 23.4807 138.907 22.8341 138.834 22.1876C135.273 23.2309 131.626 23.2896 128.555 21.306C128.343 21.1651 128.162 20.9832 128.019 20.7708C127.877 20.5583 127.778 20.3194 127.726 20.0676C127.675 19.8159 127.672 19.5563 127.719 19.3036C127.766 19.0509 127.861 18.8101 127.999 18.5949C128.138 18.3798 128.316 18.1945 128.525 18.0496C128.733 17.9047 128.968 17.8032 129.215 17.7506C129.462 17.6981 129.716 17.6957 129.964 17.7435C130.212 17.7913 130.448 17.8884 130.66 18.0292C132.721 19.3958 135.72 19.1607 138.661 18.1174C138.751 13.9822 139.532 9.89271 140.968 6.02433C141.559 4.40801 142.67 1.36638 144.962 0.337805C145.458 0.119465 145.993 0.00683594 146.534 0.00683594C147.074 0.00683594 147.609 0.119465 148.105 0.337805C149.662 0.968483 150.99 2.07295 151.908 3.50073C152.827 4.92851 153.291 6.61017 153.238 8.31658C152.892 12.857 149.287 16.3541 146.317 18.4847C145.126 19.3303 143.873 20.0819 142.569 20.7329C142.63 21.639 142.736 22.5413 142.886 23.4366C143.636 27.6096 146.202 32.0913 150.095 32.0913C150.577 32.1338 151.025 32.3589 151.352 32.7221C151.679 33.0852 151.86 33.5601 151.86 34.0529C151.86 34.5457 151.679 35.0206 151.352 35.3837C151.025 35.7469 150.577 35.972 150.095 36.0145L150.08 35.9998ZM146.534 3.92311C146 4.15821 145.351 5.3925 144.587 7.40556C143.543 10.2396 142.883 13.2058 142.626 16.2219C143.145 15.9133 143.65 15.5754 144.14 15.2374C146.015 13.8856 149.201 11.1525 149.432 7.97862C149.411 7.09807 149.133 6.24392 148.631 5.52631C148.13 4.8087 147.43 4.26053 146.62 3.9525L146.534 3.92311Z" fill="#FF5722"/>
<path d="M128.338 35.985C122.225 35.985 118.433 30.0193 117.381 24.1123C117.265 23.4805 117.179 22.834 117.107 22.1874C113.545 23.2307 109.811 23.2895 106.827 21.3058C106.403 21.022 106.107 20.5788 106.004 20.0732C105.9 19.5677 105.997 19.0408 106.273 18.6078C106.549 18.1748 106.982 17.8708 107.478 17.7624C107.973 17.6539 108.491 17.7498 108.917 18.0291C110.993 19.3956 113.978 19.1605 116.934 18.1172C117.019 13.9828 117.794 9.89336 119.226 6.02418C119.817 4.40786 120.927 1.36622 123.22 0.337651C123.726 0.109147 124.272 -0.0101254 124.826 -0.0126542C125.379 -0.0151831 125.927 0.0990859 126.435 0.322957C127.992 0.953635 129.32 2.0581 130.238 3.48588C131.157 4.91366 131.621 6.59532 131.568 8.30173C131.222 12.8421 127.603 16.3393 124.647 18.4699C123.451 19.3155 122.193 20.0671 120.884 20.7181C120.95 21.6244 121.061 22.5267 121.216 23.4217C121.749 26.3605 123.941 32.0617 128.425 32.0617C128.691 32.0382 128.96 32.0714 129.214 32.1593C129.467 32.2472 129.7 32.3878 129.897 32.5723C130.095 32.7567 130.252 32.9809 130.36 33.2308C130.468 33.4806 130.523 33.7505 130.523 34.0234C130.523 34.2963 130.468 34.5662 130.36 34.816C130.252 35.0658 130.095 35.29 129.897 35.4745C129.7 35.6589 129.467 35.7996 129.214 35.8875C128.96 35.9753 128.691 36.0086 128.425 35.985H128.338ZM124.806 3.92296C124.272 4.15806 123.609 5.39234 122.859 7.40541C121.801 10.2353 121.141 13.2035 120.898 16.2217C121.418 15.9132 121.922 15.5752 122.34 15.2372C124.215 13.8854 127.401 11.1523 127.646 7.97847C127.639 7.11654 127.383 6.27577 126.912 5.56019C126.44 4.8446 125.773 4.2856 124.993 3.95234L124.806 3.92296Z" fill="#FF5722"/>
<path d="M7.40554 32.4962L7.39666 32.4855C5.95252 30.747 5.22916 28.5052 5.37814 26.2343V14.7374H2.58597C2.02602 14.7374 1.5576 14.6089 1.22882 14.3057C0.896205 13.999 0.75 13.5542 0.75 13.018C0.75 12.4819 0.896205 12.0371 1.22882 11.7304C1.5576 11.4272 2.02602 11.2986 2.58597 11.2986H5.37814V6.20103C5.34285 5.9106 5.37264 5.61568 5.46544 5.33839C5.56002 5.0558 5.71757 4.79892 5.92615 4.58798C6.13474 4.37703 6.38874 4.21775 6.66845 4.12297C6.93742 4.03183 7.2229 4.0028 7.50414 4.03787C7.78223 4.00699 8.06368 4.0396 8.32792 4.13343C8.60287 4.23106 8.85142 4.3922 9.05422 4.60381C9.257 4.81539 9.40854 5.07167 9.49729 5.35235C9.58412 5.62695 9.60861 5.91784 9.56911 6.2032V11.2693H15.0863C15.6444 11.2693 16.1132 11.3933 16.4427 11.6948C16.7765 12.0003 16.9222 12.4461 16.9222 12.9886C16.9222 13.5312 16.7765 13.977 16.4427 14.2825C16.1132 14.584 15.6444 14.708 15.0863 14.708H9.56911V25.9046V25.913L9.56855 25.9214C9.47723 27.2781 9.83981 28.6257 10.5961 29.7444C11.0239 30.1959 11.5462 30.5425 12.1236 30.7584C12.7071 30.9766 13.3317 31.0557 13.9496 30.9899L13.9653 30.9882L13.9811 30.9885C14.4406 30.9977 14.8992 30.9421 15.3438 30.8232C15.7009 30.6977 16.0751 30.6296 16.4529 30.6214C16.6184 30.6027 16.7859 30.6261 16.9401 30.6897C17.0987 30.755 17.2377 30.8604 17.3442 30.9954L17.3524 31.0057L17.3594 31.0168C17.5959 31.3913 17.7054 31.8336 17.672 32.2765C17.6719 32.6548 17.5967 33.0294 17.4506 33.3776L17.4486 33.3826L17.4485 33.3826C17.3671 33.5654 17.2493 33.7294 17.1021 33.864C16.955 33.9987 16.7817 34.1011 16.5933 34.1644L16.5866 34.1667L16.5865 34.1666C16.1037 34.3138 15.6133 34.4337 15.1175 34.5259M7.40554 32.4962L15.0718 34.2801M7.40554 32.4962L7.41556 32.5059C8.21991 33.2804 9.17467 33.8751 10.2186 34.2515C11.26 34.627 12.367 34.7769 13.4686 34.6916M7.40554 32.4962L13.457 34.4417M15.1175 34.5259L15.0718 34.2801M15.1175 34.5259C15.1177 34.5258 15.1178 34.5258 15.1179 34.5258L15.0718 34.2801M15.1175 34.5259C14.5734 34.6279 14.0218 34.6833 13.4686 34.6916M15.0718 34.2801C14.539 34.38 13.9988 34.4341 13.457 34.4417M13.4686 34.6916C13.4713 34.6914 13.4739 34.6912 13.4766 34.6909L13.457 34.4417M13.4686 34.6916C13.4659 34.6916 13.4632 34.6916 13.4606 34.6917L13.457 34.4417" fill="#FF5722" stroke="#FF5722" stroke-width="0.5"/>
<path d="M24.3183 14.5055V13.1101C24.3573 12.8263 24.333 12.537 24.247 12.2638C24.1592 11.9846 24.0092 11.7294 23.8084 11.5181C23.6075 11.3069 23.3612 11.1454 23.0885 11.0465C22.8204 10.9493 22.5342 10.9153 22.2514 10.9469C21.6239 10.9496 21.1089 11.1201 20.7535 11.5C20.3982 11.8797 20.2427 12.426 20.2427 13.0924V32.3818C20.2009 32.6739 20.2247 32.972 20.3125 33.2536C20.4023 33.5416 20.5565 33.8047 20.7635 34.0222C20.9705 34.2397 21.2246 34.4056 21.506 34.5064C21.7758 34.6032 22.0634 34.6374 22.3478 34.6067C22.6391 34.6493 22.9362 34.6234 23.2163 34.5307C23.5079 34.4343 23.7723 34.2684 23.9876 34.0473C24.2029 33.8262 24.363 33.5563 24.4549 33.2603C24.5447 32.971 24.5669 32.6647 24.5202 32.3654V21.1741H24.5205L24.5198 21.1608C24.4759 20.3306 24.593 19.4998 24.8645 18.716C25.1347 17.9356 25.5526 17.2171 26.0942 16.6014C27.3473 15.4086 28.982 14.7208 30.6943 14.6647L30.7054 14.6644L30.7165 14.663L31.4346 14.5752C32.0608 14.5125 32.5641 14.3097 32.8954 13.9434C33.2308 13.5725 33.3546 13.0734 33.2995 12.4956C33.2465 11.9403 33.0916 11.4816 32.7783 11.1759C32.4592 10.8646 32.0202 10.7542 31.4956 10.8001C29.86 10.817 28.2551 11.2527 26.8284 12.0669C25.7956 12.6512 24.9336 13.493 24.3183 14.5055Z" fill="#FF5722" stroke="#FF5722" stroke-width="0.5"/>
<path d="M36.3335 31.2024L36.3342 31.2034C37.0882 32.3079 38.1171 33.1891 39.3158 33.7563C40.6168 34.3938 42.0457 34.7142 43.4896 34.692C45.0154 34.7215 46.5174 34.3054 47.818 33.4932L47.8195 33.4924C48.7499 32.9028 49.5296 32.1051 50.1029 31.1657V32.3995C50.1029 33.0863 50.2792 33.6443 50.6404 34.032C51.004 34.4223 51.5212 34.6038 52.1263 34.6038C52.7324 34.6038 53.2294 34.4214 53.569 34.024C53.9023 33.6339 54.0488 33.0768 54.0488 32.3995V19.861C54.2456 17.4011 53.4852 14.9601 51.9303 13.0654L51.9179 13.0503L51.9032 13.0373C51.0063 12.2391 49.9609 11.6323 48.8291 11.253C47.7003 10.8746 46.5084 10.7304 45.3239 10.8288C44.045 10.8418 42.7717 11.0019 41.5281 11.3059C40.1468 11.6363 38.8096 12.1351 37.5455 12.7913C37.3118 12.8881 37.1012 13.0343 36.9277 13.2199C36.7513 13.4084 36.6173 13.6332 36.5344 13.8788L36.5344 13.8788L36.534 13.88C36.3877 14.3211 36.3874 14.7987 36.5332 15.2399C36.5999 15.4545 36.7096 15.6531 36.8557 15.8229C37.0024 15.9933 37.1827 16.1311 37.3851 16.2271L37.395 16.2318L37.4053 16.2356C37.6563 16.3287 37.9255 16.36 38.1909 16.3269C38.4522 16.2944 38.702 16.2004 38.9208 16.0528C39.9563 15.481 41.0569 15.0415 42.1978 14.7443L42.1989 14.7441C43.2238 14.4722 44.2779 14.3319 45.3368 14.3263L45.3477 14.3262L45.3586 14.3252C45.9941 14.2664 46.6347 14.3438 47.2394 14.5524C47.8369 14.7585 48.3865 15.0885 48.8534 15.5216C49.6848 16.6555 50.0744 18.0644 49.9454 19.4756L49.9443 19.4869V19.4983V20.7177H48.7554C46.1033 20.6588 43.452 20.8666 40.84 21.3381C39.2325 21.5749 37.7387 22.3183 36.5677 23.4632L36.557 23.4737L36.5477 23.4853C35.6308 24.6247 35.1643 26.0707 35.238 27.5408C35.2236 28.8468 35.606 30.1258 36.3335 31.2024ZM44.0912 31.371L44.0804 31.3705L44.0697 31.371C42.8609 31.4268 41.6748 31.02 40.7443 30.2294C40.3533 29.8616 40.0437 29.4125 39.8366 28.9121C39.6287 28.4098 39.529 27.8677 39.5443 27.3225L39.5446 27.3117L39.544 27.301C39.521 26.905 39.5776 26.5085 39.7101 26.1358C39.8408 25.7685 40.0425 25.4321 40.3029 25.1465C41.1057 24.4903 42.0824 24.0942 43.1071 24.0087L43.1072 24.009L43.1193 24.0074C45.019 23.7544 46.9341 23.6422 48.8496 23.6716L48.8496 23.6716H48.8535H50.0453V24.8028H50.0451L50.0454 24.8118C50.1075 26.5434 49.5151 28.2326 48.3917 29.531C47.8499 30.1395 47.1842 30.6194 46.4416 30.9371C45.6985 31.2551 44.8962 31.4032 44.0912 31.371Z" fill="#FF5722" stroke="#FF5722" stroke-width="0.5"/>
<path d="M68.6171 34.604V34.6041L68.6211 34.604C69.2074 34.6027 69.7769 34.4074 70.244 34.0482C70.7066 33.6925 71.0437 33.1952 71.2067 32.6305L79.2303 13.8832C79.3724 13.568 79.4458 13.2255 79.4458 12.8789C79.4458 12.5316 79.372 12.1882 79.2292 11.8723L79.2295 11.8722L79.2239 11.8611C79.0661 11.5537 78.8202 11.3013 78.5179 11.138C78.2226 10.9786 77.8875 10.9116 77.5548 10.9455C77.0905 10.9158 76.63 11.0462 76.2478 11.3154L76.2348 11.3245L76.2231 11.3353C75.854 11.6729 75.5779 12.1021 75.4214 12.5804L68.765 29.1L62.125 12.5867C61.9994 12.123 61.7297 11.7121 61.355 11.4161C60.98 11.1198 60.5203 10.9549 60.0449 10.9467C59.6838 10.9027 59.3179 10.9622 58.9884 11.1183C58.6545 11.2765 58.3719 11.5274 58.1728 11.8414L58.1657 11.8526L58.1598 11.8645C58.0007 12.1862 57.918 12.5412 57.918 12.901C57.918 13.2582 57.9995 13.6106 58.1563 13.9305L66.0206 32.6317C66.1925 33.1937 66.534 33.6872 66.9976 34.0416C67.4649 34.3987 68.0319 34.5959 68.6171 34.604Z" fill="#FF5722" stroke="#FF5722" stroke-width="0.5"/>
<path d="M84.9723 31.4815L84.972 31.4817L84.9816 31.4911C86.1009 32.583 87.4279 33.4304 88.8809 33.9809C90.3327 34.5309 91.8795 34.7728 93.4264 34.6918C94.8105 34.6668 96.1844 34.4461 97.5087 34.0359C98.8103 33.6973 100.042 33.1257 101.147 32.3481C101.447 32.1864 101.699 31.9488 101.882 31.6589C102.067 31.3643 102.172 31.0258 102.188 30.6771L102.189 30.6771L102.189 30.6665C102.19 30.3645 102.113 30.0672 101.965 29.8048C101.817 29.5423 101.603 29.3238 101.344 29.1717L101.337 29.1675L101.33 29.1638C101.006 29.0008 100.641 28.938 100.282 28.9834C99.9258 29.0284 99.5909 29.1774 99.3174 29.4118C98.4368 30.0564 97.4522 30.5383 96.4084 30.8358C95.4306 31.0901 94.4258 31.2204 93.4168 31.2237L93.4168 31.2233L93.4029 31.2242C92.4289 31.2815 91.4535 31.1389 90.5344 30.8047C89.6186 30.4717 88.7772 29.9552 88.0598 29.2854C86.7201 27.794 85.9709 25.8512 85.9526 23.8331H100.742C101.304 23.8331 101.772 23.7001 102.1 23.3953C102.43 23.0887 102.577 22.6475 102.578 22.1208C102.741 19.1422 101.818 16.2066 99.9868 13.8776L99.9817 13.871L99.9761 13.8648C99.0612 12.8487 97.9371 12.0507 96.6838 11.5283C95.4335 11.0071 94.0856 10.7732 92.7362 10.8432C90.7528 10.7999 88.7971 11.3213 87.0891 12.3485L87.0891 12.3485L87.0872 12.3496C85.442 13.3589 84.1105 14.8206 83.2453 16.566L83.2449 16.5668C82.2933 18.5046 81.8194 20.6492 81.8638 22.8151C81.7815 24.3967 82.0138 25.9791 82.5468 27.4672C83.0809 28.9582 83.9059 30.3238 84.9723 31.4815ZM92.8142 14.1202L92.8272 14.1208L92.8401 14.1201C93.6554 14.0757 94.4704 14.2164 95.2261 14.5323C95.9791 14.847 96.6547 15.3277 97.2044 15.9404C98.2815 17.3448 98.8738 19.0706 98.8926 20.8499H86.0166C86.1774 19.0653 86.8947 17.378 88.066 16.0372C88.6782 15.3921 89.4179 14.8876 90.2357 14.5571C91.055 14.226 91.9341 14.0771 92.8142 14.1202Z" fill="#FF5722" stroke="#FF5722" stroke-width="0.5"/>
<path d="M156.535 31.2023L156.535 31.2032C157.289 32.3078 158.318 33.189 159.517 33.7561C160.818 34.3936 162.247 34.7141 163.691 34.6919C165.221 34.7242 166.729 34.308 168.034 33.4931L168.035 33.4922C168.965 32.9027 169.745 32.105 170.319 31.1656V32.3994C170.319 33.0862 170.495 33.6442 170.856 34.0319C171.22 34.4222 171.737 34.6037 172.342 34.6037C172.948 34.6037 173.445 34.4213 173.785 34.0239C174.118 33.6337 174.264 33.0767 174.264 32.3994V19.8607C174.457 17.3986 173.691 14.9573 172.131 13.0649L172.119 13.05L172.104 13.0371C171.209 12.2408 170.166 11.6351 169.037 11.2558C167.911 10.8775 166.722 10.7323 165.54 10.8287C164.261 10.8425 162.988 11.0026 161.744 11.3058C160.366 11.634 159.034 12.1328 157.775 12.7912C157.541 12.8876 157.329 13.033 157.153 13.2178C156.974 13.4058 156.837 13.6301 156.751 13.8756L156.751 13.8756L156.75 13.8799C156.603 14.3205 156.603 14.7977 156.748 15.2386C156.82 15.4782 156.948 15.6973 157.12 15.8772L157.301 15.7042L157.12 15.8772C157.294 16.0581 157.508 16.1942 157.744 16.2734C157.981 16.3527 158.233 16.3727 158.479 16.3317C158.719 16.2917 158.946 16.195 159.142 16.0498C160.176 15.4794 161.274 15.0409 162.413 14.7442L162.414 14.7439C163.439 14.4721 164.493 14.3318 165.552 14.3262L165.563 14.3261L165.574 14.3251C166.21 14.2663 166.85 14.3436 167.455 14.5522C168.053 14.7584 168.602 15.0883 169.069 15.5215C169.9 16.6553 170.29 18.0643 170.161 19.4754L170.16 19.4868V19.4982V20.7176H168.971C166.314 20.658 163.658 20.8659 161.041 21.338C159.434 21.5747 157.94 22.3181 156.769 23.4631L156.758 23.4735L156.749 23.4851C155.832 24.6246 155.365 26.0706 155.439 27.5406C155.425 28.8466 155.807 30.1257 156.535 31.2023ZM164.29 31.3708L164.279 31.3704L164.268 31.3711C163.049 31.4409 161.85 31.0327 160.916 30.229C160.52 29.8642 160.206 29.4158 159.997 28.9147C159.786 28.4123 159.686 27.8691 159.702 27.3228L159.703 27.3118L159.702 27.3008C159.679 26.9049 159.735 26.5084 159.868 26.1357C159.999 25.7684 160.2 25.432 160.461 25.1464C161.264 24.4902 162.24 24.0941 163.265 24.0086L163.265 24.0089L163.277 24.0073C165.177 23.7552 167.092 23.643 169.008 23.6714V23.6715H169.011H170.203V24.8027H170.203L170.203 24.8116C170.265 26.5433 169.673 28.2324 168.55 29.5308C168.012 30.1338 167.353 30.6104 166.618 30.9279C165.883 31.2457 165.089 31.3968 164.29 31.3708Z" fill="#FF5722" stroke="#FF5722" stroke-width="0.5"/>
</svg>
