<svg width="127" height="26" viewBox="0 0 127 26" fill="none" xmlns="http://www.w3.org/2000/svg">
<path d="M108.533 25.9998C104.102 25.9998 101.36 21.6913 100.598 17.4145C100.526 16.9582 100.453 16.4913 100.4 16.0243C97.825 16.7778 95.1872 16.8202 92.9663 15.3876C92.8136 15.2859 92.6822 15.1545 92.5794 15.0011C92.4766 14.8476 92.4045 14.675 92.3672 14.4932C92.3299 14.3114 92.3282 14.1239 92.3621 13.9414C92.396 13.7589 92.4649 13.585 92.5649 13.4296C92.6648 13.2742 92.7939 13.1404 92.9447 13.0358C93.0954 12.9312 93.265 12.8578 93.4436 12.8198C93.6222 12.7819 93.8064 12.7801 93.9857 12.8147C94.165 12.8492 94.3359 12.9193 94.4886 13.0211C95.9796 14.008 98.1483 13.8382 100.275 13.0847C100.34 10.0982 100.904 7.14468 101.944 4.35085C102.371 3.18351 103.174 0.986773 104.832 0.243916C105.191 0.0862263 105.577 0.00488281 105.968 0.00488281C106.359 0.00488281 106.746 0.0862263 107.105 0.243916C108.23 0.699405 109.191 1.49708 109.855 2.52825C110.519 3.55943 110.855 4.77395 110.816 6.00636C110.566 9.28555 107.96 11.8113 105.812 13.35C104.95 13.9607 104.044 14.5035 103.101 14.9737C103.145 15.6281 103.222 16.2798 103.33 16.9264C103.872 19.9402 105.728 23.177 108.543 23.177C108.892 23.2077 109.216 23.3702 109.453 23.6325C109.689 23.8948 109.82 24.2378 109.82 24.5937C109.82 24.9496 109.689 25.2926 109.453 25.5549C109.216 25.8172 108.892 25.9797 108.543 26.0104L108.533 25.9998ZM105.968 2.8333C105.582 3.0031 105.113 3.89453 104.561 5.3484C103.805 7.39522 103.328 9.53748 103.143 11.7158C103.518 11.4929 103.883 11.2488 104.237 11.0047C105.593 10.0284 107.897 8.05453 108.064 5.76228C108.049 5.12633 107.848 4.50944 107.485 3.99117C107.123 3.47289 106.616 3.077 106.031 2.85453L105.968 2.8333Z" fill="#FF5722"/>
<path d="M92.8098 25.9895C88.389 25.9895 85.6469 21.681 84.8857 17.4149C84.8023 16.9585 84.7397 16.4916 84.6876 16.0246C82.1123 16.7781 79.4118 16.8206 77.2535 15.3879C76.9473 15.1829 76.7333 14.8629 76.6583 14.4977C76.5832 14.1326 76.6533 13.7521 76.8531 13.4393C77.0529 13.1266 77.3662 12.9071 77.7245 12.8288C78.0828 12.7504 78.4571 12.8197 78.7654 13.0214C80.2668 14.0083 82.4251 13.8385 84.5625 13.0851C84.624 10.0991 85.1846 7.14559 86.2203 4.35118C86.6478 3.18383 87.4506 0.987096 89.1084 0.244239C89.4743 0.0792079 89.8697 -0.00693298 90.2699 -0.0087594C90.6701 -0.0105858 91.0663 0.0719418 91.4335 0.233626C92.5593 0.689116 93.5197 1.48679 94.184 2.51796C94.8482 3.54914 95.1839 4.76367 95.1454 5.99608C94.8951 9.27526 92.2781 11.801 90.1407 13.3397C89.2754 13.9505 88.3656 14.4933 87.4194 14.9634C87.4672 15.618 87.5472 16.2697 87.6592 16.9161C88.0449 19.0385 89.6298 23.1561 92.8724 23.1561C93.0653 23.1391 93.2596 23.1631 93.4429 23.2265C93.6263 23.29 93.7946 23.3916 93.9373 23.5248C94.08 23.658 94.194 23.82 94.2719 24.0004C94.3499 24.1808 94.3901 24.3757 94.3901 24.5728C94.3901 24.7699 94.3499 24.9648 94.2719 25.1453C94.194 25.3257 94.08 25.4876 93.9373 25.6208C93.7946 25.7541 93.6263 25.8556 93.4429 25.9191C93.2596 25.9826 93.0653 26.0066 92.8724 25.9895H92.8098ZM90.2554 2.83363C89.8696 3.00342 89.39 3.89485 88.8478 5.34873C88.0827 7.39257 87.6053 9.53622 87.4298 11.7161C87.8051 11.4932 88.1701 11.2491 88.4724 11.0051C89.8279 10.0287 92.1321 8.05485 92.3094 5.76261C92.3039 5.1401 92.1193 4.53288 91.7783 4.01607C91.4373 3.49926 90.955 3.09554 90.3909 2.85485L90.2554 2.83363Z" fill="#FF5722"/>
<path d="M5.30425 23.5175L5.29535 23.5068C4.24002 22.238 3.71129 20.6023 3.81956 18.9452V10.7137H1.86957C1.45539 10.7137 1.09678 10.6188 0.841336 10.3836C0.581996 10.1448 0.472656 9.80199 0.472656 9.40245C0.472656 9.00292 0.581996 8.66013 0.841336 8.42131C1.09678 8.18608 1.45539 8.09123 1.86957 8.09123H3.81956V4.48323C3.79359 4.26458 3.81635 4.04266 3.8863 3.83391C3.95806 3.61979 4.07762 3.42508 4.23597 3.26514C4.39434 3.10519 4.58724 2.98436 4.79976 2.91244C5.00154 2.84415 5.21559 2.82181 5.42668 2.84689C5.63553 2.82494 5.84666 2.84998 6.04501 2.92032L5.96145 3.15594L6.04501 2.92032C6.25405 2.99445 6.44295 3.11679 6.59703 3.27735L6.41665 3.45044L6.59703 3.27735C6.7511 3.43789 6.86617 3.63228 6.93355 3.8451L6.69521 3.92056L6.93355 3.8451C6.99898 4.05176 7.01778 4.27058 6.98874 4.48538V8.07001H10.9093C11.3217 8.07001 11.6807 8.16139 11.9369 8.39547C12.1974 8.63359 12.3062 8.97736 12.3062 9.38123C12.3062 9.7851 12.1974 10.1289 11.9369 10.367C11.6807 10.6011 11.3217 10.6925 10.9093 10.6925H6.98874V18.7094V18.7178L6.98817 18.7262C6.9233 19.6887 7.18024 20.6447 7.71625 21.4388C8.01767 21.7553 8.38508 21.9983 8.79102 22.1499C9.20295 22.3037 9.64385 22.3595 10.08 22.313L10.0957 22.3114L10.1115 22.3117C10.4365 22.3182 10.7608 22.2791 11.0753 22.1953C11.3386 22.1032 11.6145 22.053 11.8931 22.0466C12.0233 22.0324 12.1549 22.0512 12.2762 22.1011C12.402 22.1528 12.5121 22.2362 12.5964 22.3429L12.6046 22.3533L12.6116 22.3644C12.7902 22.6468 12.8731 22.9801 12.8484 23.314C12.848 23.5956 12.7918 23.8743 12.683 24.1335L12.6808 24.1385L12.6808 24.1385C12.6181 24.2792 12.5272 24.4055 12.4137 24.5092C12.3002 24.613 12.1666 24.6919 12.0211 24.7407L12.0144 24.7429L12.0144 24.7428C11.6629 24.8499 11.3059 24.9371 10.9449 25.0041C10.9448 25.0041 10.9447 25.0042 10.9445 25.0042L10.8989 24.7584C10.5136 24.8306 10.1229 24.8696 9.73114 24.8751L5.30425 23.5175ZM5.30425 23.5175L5.31427 23.5271C5.90293 24.0932 6.60171 24.528 7.36582 24.8031C8.12743 25.0774 8.93696 25.187 9.74267 25.125L5.30425 23.5175Z" fill="#FEE6D3" stroke="#FEE6D3" stroke-width="0.5"/>
<path d="M17.6549 10.24V9.47339C17.6836 9.25974 17.665 9.04216 17.6002 8.83655C17.5335 8.62482 17.4196 8.43122 17.267 8.27096C17.1144 8.11068 16.9272 7.98805 16.7198 7.91296C16.5172 7.83959 16.3009 7.81362 16.087 7.83697C15.623 7.83957 15.2309 7.96628 14.9573 8.25826C14.6838 8.55022 14.5692 8.96496 14.5692 9.45591V23.3822C14.5385 23.6018 14.5567 23.8258 14.6228 24.0375C14.6909 24.2556 14.8079 24.455 14.965 24.6199C15.1221 24.7847 15.315 24.9105 15.5287 24.987C15.7309 25.0594 15.9463 25.0856 16.1594 25.064C16.3779 25.0945 16.6005 25.0745 16.8104 25.0051C17.0319 24.9319 17.2327 24.8061 17.3961 24.6386C17.5595 24.471 17.6809 24.2665 17.7506 24.0422C17.8181 23.8249 17.8353 23.5948 17.8009 23.3699V15.2926H17.8013L17.8006 15.2794C17.7692 14.6888 17.8527 14.0978 18.046 13.5402C18.2382 12.986 18.5351 12.4758 18.9198 12.0384C19.8135 11.1899 20.9787 10.7007 22.1989 10.6609L22.21 10.6605L22.221 10.6592L22.7396 10.5958C23.2021 10.5494 23.5847 10.3987 23.8396 10.1172C24.0988 9.83102 24.1907 9.44916 24.1495 9.01826C24.1105 8.60985 23.9954 8.25921 23.7519 8.02194C23.5027 7.77922 23.1637 7.69724 22.7727 7.73092C21.5791 7.74369 20.408 8.06145 19.3668 8.6548C18.6789 9.04354 18.0943 9.58786 17.6549 10.24Z" fill="#FEE6D3" stroke="#FEE6D3" stroke-width="0.5"/>
<path d="M36.1615 22.7453V23.4004C36.1615 23.9077 36.2919 24.33 36.5688 24.6269C36.8481 24.9263 37.2426 25.0619 37.6939 25.0619C38.1462 25.0619 38.5274 24.9254 38.7897 24.6189C39.0458 24.3196 39.1534 23.8982 39.1534 23.4004V14.3476C39.2964 12.5541 38.7409 10.7744 37.6056 9.39273L37.5931 9.3776L37.5785 9.36458C36.9229 8.78195 36.1588 8.33894 35.3314 8.06202C34.507 7.78609 33.6366 7.68073 32.7714 7.75217C31.8422 7.76177 30.9171 7.878 30.0135 8.09865C29.0101 8.33835 28.0388 8.70004 27.1205 9.17587C26.9434 9.24957 26.7839 9.36041 26.6524 9.50088C26.518 9.64433 26.416 9.81532 26.3529 10.002L26.3529 10.002L26.3525 10.0032C26.242 10.3358 26.2417 10.6959 26.3517 11.0287C26.4027 11.1925 26.4867 11.3441 26.5984 11.4738C26.7108 11.6042 26.8489 11.7096 27.004 11.7831L27.014 11.7878L27.0243 11.7916C27.2161 11.8627 27.422 11.8866 27.6249 11.8614C27.8236 11.8366 28.0136 11.7655 28.1802 11.6538C28.9232 11.2443 29.7129 10.9296 30.5313 10.7167L30.5324 10.7164C31.2679 10.5216 32.0244 10.421 32.7844 10.417L32.7953 10.4169L32.8061 10.4159C33.2559 10.3743 33.7094 10.429 34.1374 10.5765C34.5583 10.7215 34.9457 10.9532 35.2753 11.2574C35.8637 12.0616 36.1394 13.06 36.0478 14.0601L36.0468 14.0715V14.0829V14.8941H35.2569C33.3351 14.8515 31.4138 15.0019 29.5209 15.3431C28.3444 15.5164 27.2511 16.0599 26.3942 16.8967L26.3836 16.9071L26.3742 16.9187C25.7008 17.7545 25.3581 18.8148 25.4117 19.8927C25.4016 20.8493 25.6822 21.7861 26.2159 22.5748L26.2165 22.5758C26.7687 23.3835 27.522 24.028 28.3999 24.4429C29.35 24.9078 30.3935 25.1416 31.448 25.1256C32.5644 25.1469 33.6633 24.8427 34.6149 24.2493L34.6163 24.2484C35.2312 23.8593 35.7562 23.3464 36.1615 22.7453ZM31.8859 22.5882L31.8752 22.5878L31.8645 22.5883C31.0085 22.6277 30.1684 22.3402 29.5089 21.7812C29.234 21.5226 29.0162 21.2069 28.8704 20.8551C28.7238 20.5014 28.6535 20.1196 28.6643 19.7356L28.6646 19.7248L28.664 19.7141C28.6479 19.4374 28.6874 19.1604 28.7802 18.9C28.871 18.645 29.0109 18.4114 29.1913 18.2128C29.7603 17.7495 30.4519 17.47 31.1773 17.4096L31.1773 17.4099L31.1895 17.4083C32.5599 17.226 33.9414 17.1451 35.3233 17.1663L35.3233 17.1664H35.3271H36.1198V17.9139H36.1196L36.1199 17.9229C36.1642 19.1559 35.7419 20.3585 34.9412 21.2828C34.5562 21.7145 34.0833 22.0549 33.5558 22.2804C33.0278 22.506 32.4578 22.611 31.8859 22.5882Z" fill="#FEE6D3" stroke="#FEE6D3" stroke-width="0.5"/>
<path d="M49.6199 25.062L49.6199 25.0621L49.624 25.0621C50.0632 25.0611 50.4897 24.9149 50.8394 24.6463C51.1847 24.3812 51.4365 24.011 51.5589 23.5908L57.3593 10.0556C57.4659 9.81912 57.521 9.56217 57.521 9.30227C57.521 9.0415 57.4655 8.7837 57.3582 8.54655L57.3585 8.54642L57.3528 8.53535C57.2324 8.30094 57.0446 8.10842 56.8135 7.98379C56.5896 7.86298 56.3355 7.81167 56.083 7.83627C55.7334 7.81518 55.3871 7.91382 55.0994 8.11617L55.0864 8.12532L55.0747 8.13605C54.7994 8.38745 54.5935 8.70687 54.4765 9.06274L49.7279 20.8323L44.9918 9.06896C44.8966 8.72144 44.6936 8.41342 44.412 8.1912C44.1299 7.96863 43.7843 7.84437 43.4266 7.83741C43.1536 7.80487 42.8772 7.85008 42.6283 7.96789C42.3748 8.08781 42.1605 8.27788 42.0096 8.5156L42.0024 8.5268L41.9966 8.5387C41.8767 8.78069 41.8145 9.04764 41.8145 9.31819C41.8145 9.58609 41.8755 9.85046 41.993 10.0906L47.6781 23.5919C47.8069 24.0102 48.0619 24.3776 48.4078 24.6416C48.7575 24.9085 49.1819 25.056 49.6199 25.062Z" fill="#FEE6D3" stroke="#FEE6D3" stroke-width="0.5"/>
<path d="M61.3991 22.7847L61.3989 22.785L61.4084 22.7943C62.2247 23.5895 63.1924 24.2067 64.2521 24.6077C65.3105 25.0081 66.4382 25.1843 67.5661 25.1255C68.5725 25.1073 69.5716 24.947 70.5347 24.6492C71.4821 24.4029 72.3789 23.9875 73.1835 23.4227C73.409 23.3002 73.5994 23.121 73.7366 22.9027C73.8768 22.6798 73.9568 22.4236 73.969 22.1598L73.9693 22.1598L73.9693 22.1493C73.9702 21.919 73.9113 21.6924 73.7984 21.4924C73.6854 21.2922 73.5221 21.1255 73.3246 21.0095L73.3175 21.0053L73.3101 21.0016C73.0634 20.8777 72.786 20.83 72.5125 20.8645C72.2425 20.8985 71.9885 21.0112 71.7809 21.1882C71.1514 21.648 70.4478 21.9918 69.702 22.2042C69.0007 22.3863 68.2801 22.4796 67.5564 22.482L67.5564 22.4816L67.5426 22.4824C66.8476 22.5232 66.1516 22.4216 65.4958 22.1835C64.8432 21.9465 64.2436 21.5791 63.732 21.1027C62.7914 20.0558 62.2586 18.6977 62.2291 17.2832H72.8539C73.2699 17.2832 73.6281 17.1848 73.8828 16.9485C74.1394 16.7104 74.2495 16.3712 74.2508 15.979C74.369 13.8117 73.6968 11.6756 72.3622 9.98056L72.357 9.97401L72.3514 9.96782C71.683 9.22635 70.8616 8.64403 69.9458 8.26278C69.0329 7.88274 68.0488 7.71194 67.0635 7.76262C65.6169 7.73159 64.1908 8.11159 62.9452 8.85967L62.9452 8.85966L62.9433 8.86082C61.7424 9.59661 60.7705 10.6621 60.1391 11.9343L60.1391 11.9343L60.1386 11.9351C59.446 13.3439 59.1008 14.9029 59.1328 16.4774C59.0731 17.628 59.2425 18.7792 59.6308 19.8618C60.0201 20.9474 60.6216 21.9417 61.3991 22.7847ZM67.1176 10.2682L67.1305 10.2688L67.1434 10.2681C67.7226 10.2366 68.3016 10.3364 68.8385 10.5606C69.3727 10.7835 69.8522 11.124 70.2425 11.558C70.9971 12.5414 71.4183 13.7454 71.4462 14.9897H62.2813C62.4094 13.7439 62.9181 12.5683 63.7383 11.6302C64.174 11.1719 64.7003 10.8136 65.2821 10.5788C65.8653 10.3434 66.4911 10.2376 67.1176 10.2682Z" fill="#FEE6D3" stroke="#FEE6D3" stroke-width="0.5"/>
<path d="M113.142 22.575L113.142 22.576C113.694 23.3837 114.448 24.0282 115.326 24.4431C116.276 24.9079 117.319 25.1417 118.374 25.1258C119.494 25.1491 120.596 24.8449 121.551 24.2495L121.552 24.2486C122.167 23.8595 122.692 23.3466 123.098 22.7455V23.4006C123.098 23.9079 123.228 24.3302 123.505 24.6271C123.784 24.9265 124.179 25.062 124.63 25.062C125.082 25.062 125.464 24.9256 125.726 24.6191C125.982 24.3197 126.09 23.8984 126.09 23.4006V14.3476C126.23 12.5525 125.67 10.7725 124.531 9.39248L124.519 9.37757L124.504 9.36473C123.85 8.78348 123.088 8.34126 122.262 8.06439C121.44 7.78846 120.571 7.68237 119.708 7.75236C118.779 7.76258 117.854 7.87878 116.95 8.09878C115.949 8.33689 114.981 8.69868 114.067 9.17604C113.889 9.24941 113.729 9.35958 113.596 9.49928C113.46 9.64215 113.356 9.81262 113.29 9.99918L113.29 9.99917L113.289 10.0034C113.178 10.3356 113.178 10.6952 113.287 11.0276C113.343 11.2108 113.44 11.3784 113.572 11.5161C113.706 11.6548 113.87 11.7591 114.052 11.82C114.234 11.8808 114.427 11.8961 114.617 11.8647C114.799 11.8343 114.972 11.761 115.121 11.6512C115.863 11.2431 116.651 10.9293 117.468 10.7169L117.469 10.7166C118.204 10.5217 118.961 10.4212 119.721 10.4171L119.731 10.4171L119.742 10.4161C120.192 10.3745 120.646 10.4292 121.074 10.5767C121.495 10.7217 121.882 10.9534 122.211 11.2575C122.8 12.0617 123.076 13.0602 122.984 14.0603L122.983 14.0716V14.0831V14.8943H122.193C120.268 14.8512 118.343 15.0016 116.447 15.3432C115.27 15.5166 114.177 16.0601 113.32 16.8969L113.309 16.9073L113.3 16.9189C112.627 17.7546 112.284 18.8149 112.337 19.8929C112.327 20.8494 112.608 21.7863 113.142 22.575ZM118.81 22.5883L118.799 22.5879L118.787 22.5886C117.924 22.638 117.075 22.3495 116.413 21.7811C116.135 21.5246 115.914 21.2093 115.766 20.8569C115.618 20.5033 115.547 20.1208 115.559 19.7362L115.559 19.7252L115.558 19.7143C115.542 19.4376 115.582 19.1606 115.675 18.9002C115.765 18.6452 115.905 18.4116 116.086 18.213C116.655 17.7497 117.346 17.4702 118.072 17.4098L118.072 17.41L118.084 17.4085C119.454 17.2269 120.836 17.146 122.218 17.1665V17.1665H122.222H123.014V17.9141H123.014L123.014 17.9231C123.059 19.156 122.636 20.3586 121.836 21.2829C121.454 21.7107 120.986 22.0488 120.464 22.2741C119.941 22.4996 119.377 22.6067 118.81 22.5883Z" fill="#FEE6D3" stroke="#FEE6D3" stroke-width="0.5"/>
</svg>
