<svg width="16" height="16" viewBox="0 0 16 16" fill="none" xmlns="http://www.w3.org/2000/svg">
<rect width="16" height="16" rx="4" fill="white"/>
<path d="M12.2353 12.0908C10.8167 12.0908 9.93889 10.7359 9.69523 9.39099C9.67186 9.24749 9.6485 9.10066 9.63181 8.95382C8.80737 9.19076 7.96291 9.20411 7.25196 8.75359C7.20308 8.7216 7.16099 8.68029 7.12808 8.63204C7.09517 8.58378 7.07209 8.52952 7.06016 8.47234C7.04823 8.41517 7.04768 8.35621 7.05854 8.29882C7.06939 8.24143 7.09145 8.18674 7.12345 8.13788C7.15545 8.08901 7.19676 8.04693 7.24502 8.01403C7.29329 7.98113 7.34756 7.95805 7.40475 7.94612C7.46193 7.93419 7.52091 7.93364 7.57831 7.94449C7.6357 7.95535 7.6904 7.97741 7.73927 8.0094C8.21658 8.31976 8.91084 8.26636 9.59176 8.02942C9.61258 7.09025 9.79318 6.16148 10.1258 5.28292C10.2627 4.91583 10.5197 4.22503 11.0504 3.99143C11.1653 3.94184 11.2891 3.91626 11.4142 3.91626C11.5393 3.91626 11.6631 3.94184 11.778 3.99143C12.1384 4.13466 12.4459 4.3855 12.6585 4.70977C12.8711 5.03404 12.9786 5.41597 12.9663 5.80352C12.8862 6.83471 12.0517 7.62896 11.3641 8.11285C11.0883 8.3049 10.7982 8.47559 10.4963 8.62344C10.5105 8.82922 10.535 9.03416 10.5697 9.23748C10.7433 10.1852 11.3374 11.2031 12.2386 11.2031C12.3502 11.2127 12.454 11.2639 12.5297 11.3463C12.6053 11.4288 12.6473 11.5367 12.6473 11.6486C12.6473 11.7605 12.6053 11.8684 12.5297 11.9508C12.454 12.0333 12.3502 12.0845 12.2386 12.0941L12.2353 12.0908ZM11.4142 4.8057C11.2907 4.8591 11.1405 5.13942 10.9636 5.59661C10.7218 6.24027 10.5691 6.91393 10.5097 7.59892C10.6298 7.52884 10.7466 7.45209 10.8601 7.37533C11.294 7.06831 12.0317 6.44759 12.0851 5.72676C12.0804 5.52678 12.0159 5.33279 11.8999 5.16981C11.7839 5.00683 11.6217 4.88233 11.4342 4.81237L11.4142 4.8057Z" fill="#FF5722"/>
<path d="M7.2034 12.0874C5.78817 12.0874 4.91033 10.7325 4.66667 9.391C4.63997 9.2475 4.61994 9.10066 4.60325 8.95383C3.77881 9.19077 2.91432 9.20411 2.2234 8.75359C2.12538 8.68913 2.05687 8.58848 2.03284 8.47366C2.00882 8.35884 2.03124 8.23918 2.0952 8.14084C2.15916 8.04249 2.25945 7.97346 2.37416 7.94883C2.48888 7.9242 2.60868 7.94598 2.70738 8.0094C3.18802 8.31976 3.87895 8.26637 4.5632 8.02943C4.58289 7.09044 4.76236 6.16167 5.09391 5.28292C5.23076 4.91583 5.48777 4.22504 6.01848 3.99143C6.1356 3.93954 6.2622 3.91245 6.3903 3.91187C6.5184 3.9113 6.64523 3.93725 6.76281 3.9881C7.1232 4.13133 7.43066 4.38217 7.64329 4.70644C7.85593 5.03071 7.9634 5.41264 7.95107 5.80019C7.87096 6.83138 7.03318 7.62563 6.34893 8.10952C6.07192 8.30157 5.78069 8.47226 5.47776 8.62011C5.49306 8.82594 5.51868 9.03088 5.55453 9.23415C5.67803 9.90159 6.18537 11.1964 7.22343 11.1964C7.28519 11.1911 7.34738 11.1986 7.40607 11.2186C7.46476 11.2385 7.51865 11.2705 7.56434 11.3124C7.61002 11.3543 7.6465 11.4052 7.67146 11.4619C7.69641 11.5186 7.7093 11.58 7.7093 11.6419C7.7093 11.7039 7.69641 11.7652 7.67146 11.8219C7.6465 11.8787 7.61002 11.9296 7.56434 11.9715C7.51865 12.0134 7.46476 12.0453 7.40607 12.0653C7.34738 12.0852 7.28519 12.0928 7.22343 12.0874H7.2034ZM6.38564 4.80571C6.26214 4.8591 6.1086 5.13942 5.93504 5.59662C5.69011 6.23934 5.53729 6.91344 5.4811 7.59893C5.60126 7.52885 5.71808 7.45209 5.81488 7.37534C6.24879 7.06832 6.98644 6.4476 7.04319 5.72677C7.04144 5.53101 6.98234 5.34006 6.87318 5.17754C6.76402 5.01503 6.60961 4.88807 6.42903 4.81238L6.38564 4.80571Z" fill="#FF5722"/>
</svg>
